<?xml version="1.0" encoding="UTF-8"?>
<svg id="_圖層_1" xmlns="http://www.w3.org/2000/svg" version="1.1" viewBox="0 0 91.68 85.47">
  <!-- Generator: Adobe Illustrator 29.7.1, SVG Export Plug-In . SVG Version: 2.1.1 Build 8)  -->
  <defs>
    <style>
      .st0 {
        fill: #fff;
      }
    </style>
  </defs>
  <path class="st0" d="M81.07,12.24v3.84h-1.28v1.37h-1.31v2.6h-1.31v1.07h-.93v-1.07h-1.31v-2.6h-1.31v-1.37h-1.28v-3.84h-4.21v11.94h.62v.77h3.82v8.36l-9.14,7.95v8.56h-9.47l-6.69,8.32-6.69-8.32h-9.95v-8.56l-9.14-7.95v-8.36h3.82v-.77h.62v-11.94h-4.21v3.84h-1.28v1.37h-1.31v2.6h-1.31v1.07h-.93v-1.07h-1.31v-2.6h-1.31v-1.37h-1.28v-3.84h-4.21v11.94h.62v.77h3.2v10.05l8.2,7.13v7.68h2.31v22.53h4.17v-10.13h3.33v4.78h3.09v6.57h6.17v-17.61l7.38,9.91,6.69-8.99v16.69h15.57v-3.6h-11.44v-13.9h11.44v-6.25h3.71v-7.68l8.2-7.13v-10.05h3.2v-.77h.62v-11.94h-4.21.04,0ZM33.74,59.76h-6.42v-3.7h6.42v3.7Z"/>
  <polygon class="st0" points="89.3 69.82 91.68 69.82 91.68 60.57 82.59 51.53 71.1 51.53 71.1 53.85 82.59 53.85 89.3 60.57 89.3 69.82"/>
  <polygon class="st0" points="84.22 73.68 86.6 73.68 86.6 64.58 78.91 56.99 71.1 56.99 71.1 59.31 78.91 59.31 84.22 64.58 84.22 73.68"/>
  <polygon class="st0" points="79.66 76.3 82.04 76.3 82.04 68.39 76.29 62.84 71.1 62.84 71.1 65.16 76.29 65.16 79.66 68.39 79.66 76.3"/>
  <polygon class="st0" points="74.71 79.78 77.09 79.78 77.09 71.88 73.04 68 71.1 68 71.1 70.32 73.04 70.32 74.71 71.88 74.71 79.78"/>
  <polygon class="st0" points="2.38 69.82 0 69.82 0 60.57 9.09 51.53 20.57 51.53 20.57 53.85 9.09 53.85 2.38 60.57 2.38 69.82"/>
  <polygon class="st0" points="7.45 73.68 5.07 73.68 5.07 64.58 12.76 56.99 20.57 56.99 20.57 59.31 12.76 59.31 7.45 64.58 7.45 73.68"/>
  <polygon class="st0" points="12.02 76.3 9.64 76.3 9.64 68.39 15.38 62.84 20.57 62.84 20.57 65.16 15.38 65.16 12.02 68.39 12.02 76.3"/>
  <polygon class="st0" points="16.96 79.78 14.58 79.78 14.58 71.88 18.63 68 20.57 68 20.57 70.32 18.63 70.32 16.96 71.88 16.96 79.78"/>
  <path class="st0" d="M54.09,30.36c-1.88,0-3.41,1.49-3.41,3.33,0,1.39.88,2.58,2.12,3.08v6.93h-11.62v-6.93c1.24-.5,2.12-1.69,2.12-3.08,0-1.84-1.53-3.33-3.41-3.33s-3.41,1.49-3.41,3.33c0,1.39.88,2.58,2.12,3.08v8.81h1.25v.65h14.24v-.65h1.25v-8.81c1.25-.5,2.12-1.69,2.12-3.08,0-1.84-1.53-3.33-3.41-3.33,0,0,.04,0,.04,0Z"/>
</svg>